PathFileType	4	(X/Y/Z)	5_coords_data.trc
DataRate	CameraRate	NumFrames	NumMarkers	Units	OrigDataRate	OrigDataStartFrame	OrigNumFrames
30.0	30.0	9	21	m	30.0	10	67
Frame#	Time	THUMB_TIP	THUMB_IP	THUMB_MCP	THUMB_CMC	INDEX_TIP	INDEX_DIP	INDEX_PIP	INDEX_MCP	MIDDLE_TIP	MIDDLE_DIP	MIDDLE_PIP	MIDDLE_MCP	RING_TIP	RING_DIP	RING_PIP	RING_MCP	PINKY_TIP	PINKY_DIP	PINKY_PIP	PINKY_MCP	WRIST
X1	Y1	Z1	X2	Y2	Z2	X3	Y3	Z3	X4	Y4	Z4	X5	Y5	Z5	X6	Y6	Z6	X7	Y7	Z7	X8	Y8	Z8	X9	Y9	Z9	X10	Y10	Z10	X11	Y11	Z11	X12	Y12	Z12	X13	Y13	Z13	X14	Y14	Z14	X15	Y15	Z15	X16	Y16	Z16	X17	Y17	Z17	X18	Y18	Z18	X19	Y19	Z19	X20	Y20	Z20	X21	Y21	Z21
9	0.3	-0.008789950370788575	-0.12399900054931641	0.9975789794921875	-0.018418899536132814	-0.10495700073242188	1.012280029296875	-0.03626810073852539	-0.09580149841308594	1.03577001953125	-0.04189479827880859	-0.06458319854736329	1.0457099609375	-0.017966299057006835	-0.0993491973876953	0.9203629760742188	-0.03117539978027344	-0.0958844985961914	0.9383200073242187	-0.044293701171875	-0.09187419891357422	0.9573259887695312	-0.05614490127563477	-0.08247750091552734	0.9916729736328125	-0.010453300476074219	-0.06592710113525391	0.9063720092773437	-0.02456649971008301	-0.06630629730224609	0.926197021484375	-0.04206819915771484	-0.06527310180664063	0.9502139892578125	-0.05796590042114258	-0.06165700149536133	0.9857369995117188	-0.008747329711914062	-0.04283509826660156	0.9125689697265625	-0.022954299926757814	-0.04189820098876953	0.9310079956054688	-0.03996969985961914	-0.041532798767089846	0.95252001953125	-0.054212501525878906	-0.04274909973144531	0.9873179931640625	-0.010675900459289551	-0.016889400482177734	0.9359990234375	-0.02324690055847168	-0.018484100341796875	0.9517890014648438	-0.03408190155029297	-0.021127500534057618	0.9669390258789062	-0.04464410018920899	-0.026468299865722657	0.9905709838867187	-0.05930780029296875	-0.03480210113525391	1.05952001953125
10	0.3333333333333333	-0.00884889030456543	-0.12385900115966797	0.997458984375	-0.018434099197387695	-0.10482099914550781	1.0121799926757813	-0.036315898895263675	-0.09569029998779296	1.035780029296875	-0.04187879943847656	-0.06442130279541015	1.04577001953125	-0.017956899642944335	-0.09905359649658203	0.9203670043945312	-0.031158199310302736	-0.09563829803466797	0.938302001953125	-0.04426139831542969	-0.09166329956054688	0.9572830200195312	-0.056055301666259764	-0.08233190155029296	0.9916290283203125	-0.01044159984588623	-0.06575980377197266	0.9064420166015625	-0.024555999755859374	-0.06614219665527343	0.92627197265625	-0.0420432014465332	-0.0651250991821289	0.95031201171875	-0.058013900756835934	-0.06157590103149414	0.9857990112304688	-0.008736430168151855	-0.04268099975585937	0.912656005859375	-0.02295759963989258	-0.04173740005493164	0.9311019897460937	-0.040002399444580075	-0.04137939834594727	0.9526400146484375	-0.05427270126342774	-0.042643901824951175	0.9874559936523437	-0.010786499977111817	-0.0167947998046875	0.9360150146484375	-0.02331800079345703	-0.018381599426269532	0.9518359985351562	-0.03412089920043945	-0.02099180030822754	0.9669710083007812	-0.04471689987182617	-0.026323699951171876	0.9906950073242188	-0.059222801208496094	-0.034696701049804685	1.05956005859375
11	0.36666666666666664	-0.008951410293579102	-0.12377999877929688	0.9973880004882812	-0.018478200912475585	-0.10471900177001953	1.0121300048828126	-0.036339500427246096	-0.09563790130615234	1.0356800537109374	-0.041845699310302735	-0.0642936019897461	1.0458699951171875	-0.017927600860595704	-0.0988469009399414	0.9204039916992187	-0.031149700164794923	-0.09544300079345704	0.9383740234375	-0.0442588996887207	-0.09154630279541015	0.9573330078125	-0.05609120178222656	-0.08226799774169923	0.9916099853515625	-0.010414899826049805	-0.06557350158691407	0.9065599975585937	-0.024532400131225585	-0.06595359802246094	0.9263579711914063	-0.0420526008605957	-0.0649761962890625	0.9504010009765625	-0.057992298126220705	-0.06143970108032227	0.985885986328125	-0.008736160278320313	-0.04250569915771484	0.9127150268554688	-0.022992000579833985	-0.041573501586914065	0.93122998046875	-0.040026599884033204	-0.041253101348876955	0.9526909790039062	-0.054244300842285154	-0.04251979827880859	0.9875070190429688	-0.010821000099182129	-0.016664400100708007	0.9360900268554687	-0.023364200592041015	-0.01826350021362305	0.95189599609375	-0.034149398803710936	-0.020877899169921874	0.9670339965820313	-0.04470339965820312	-0.026224599838256837	0.9908049926757813	-0.059286399841308596	-0.03460369873046875	1.059800048828125
12	0.4	-0.00912047004699707	-0.12375599670410156	0.9974290161132813	-0.018615699768066405	-0.10469400024414062	1.0122100219726562	-0.03636180114746094	-0.09547840118408203	1.0358499755859376	-0.041867801666259766	-0.06427439880371094	1.04602001953125	-0.017920700073242188	-0.09860230255126953	0.92047900390625	-0.031125	-0.0952500991821289	0.9384539794921875	-0.044232200622558594	-0.09136280059814453	0.9574000244140625	-0.05603620147705078	-0.08205619812011719	0.9917529907226562	-0.010399200439453126	-0.06545700073242187	0.9066430053710938	-0.02449399948120117	-0.06583070373535156	0.926447998046875	-0.04199769973754883	-0.0648395004272461	0.9504639892578125	-0.05789089965820313	-0.0612681999206543	0.985958984375	-0.00873233985900879	-0.04238159942626953	0.9128200073242188	-0.022977399826049804	-0.04144319915771484	0.9312940063476562	-0.04002280044555664	-0.041105098724365234	0.9527670288085938	-0.05423040008544922	-0.04238150024414063	0.9876810302734375	-0.01085949993133545	-0.016555700302124023	0.936198974609375	-0.023412399291992188	-0.01815019989013672	0.9520230102539062	-0.034203201293945315	-0.02076609992980957	0.9671810302734375	-0.044712100982666016	-0.0260939998626709	0.9909990234375	-0.05921120071411133	-0.03454890060424805	1.05981005859375
13	0.43333333333333335	-0.009257340431213379	-0.12372799682617187	0.9974249877929687	-0.018661500930786133	-0.1045790023803711	1.01222998046875	-0.03632410049438477	-0.09533989715576172	1.0359100341796874	-0.04181829833984375	-0.06412840270996094	1.0460699462890626	-0.01790530014038086	-0.09824810028076172	0.9204530029296875	-0.03109119987487793	-0.0949468994140625	0.9384730224609374	-0.04419889831542969	-0.09111579895019531	0.9574199829101563	-0.05601900100708008	-0.08192070007324219	0.991844970703125	-0.010418700218200684	-0.06519580078125	0.9066890258789062	-0.02447909927368164	-0.06562740325927735	0.9265189819335937	-0.041969398498535156	-0.06465080261230469	0.9505289916992188	-0.057916698455810545	-0.061133499145507815	0.9859840087890624	-0.008758509635925293	-0.042154998779296876	0.9128800048828125	-0.02298979949951172	-0.04122869873046875	0.9313610229492187	-0.04002389907836914	-0.04089550018310547	0.9529019775390625	-0.05423630142211914	-0.04217950057983398	0.98781201171875	-0.010913200378417968	-0.016342599868774413	0.936260009765625	-0.023431299209594726	-0.017975400924682618	0.9521229858398438	-0.03420330047607422	-0.020582799911499024	0.9672670288085937	-0.04469829940795898	-0.025905799865722657	0.9910880126953125	-0.05914199829101562	-0.03442660140991211	1.0598800048828125
14	0.4666666666666667	-0.009251520156860352	-0.12358100128173828	0.9975289916992187	-0.01864430046081543	-0.10444400024414062	1.0122999877929688	-0.0363213996887207	-0.09519200134277343	1.03597998046875	-0.04183250045776367	-0.0639823989868164	1.0461500244140625	-0.017856000900268554	-0.09804940032958985	0.9205159912109375	-0.031036800384521484	-0.09475769805908203	0.93847998046875	-0.04414720153808594	-0.0908594970703125	0.9574669799804687	-0.05598149871826172	-0.0817227020263672	0.9918400268554688	-0.010294099807739258	-0.06496549987792968	0.9068200073242187	-0.024366800308227538	-0.06538580322265625	0.926583984375	-0.04188299942016602	-0.06444000244140625	0.95052099609375	-0.05781010055541992	-0.060894199371337894	0.9860189819335937	-0.008683910369873047	-0.041895401000976565	0.9129819946289063	-0.022921100616455078	-0.041006500244140626	0.9314550170898438	-0.03990800094604492	-0.04069710159301758	0.9528980102539063	-0.05411899948120117	-0.042008201599121095	0.987760986328125	-0.010851099967956543	-0.01615530014038086	0.9363189697265625	-0.023353399276733397	-0.017748500823974608	0.9521829833984375	-0.034097900390625	-0.020376399993896486	0.9672960205078125	-0.044641998291015624	-0.025719999313354492	0.99110498046875	-0.059323600769042965	-0.0341593017578125	1.0600999755859375
15	0.5	-0.009191969871520995	-0.12334500122070312	0.9975540161132812	-0.01866080093383789	-0.1042239990234375	1.0122899780273438	-0.03628620147705078	-0.09497830200195312	1.0360699462890626	-0.04177050018310547	-0.06377339935302734	1.0461800537109376	-0.017878700256347656	-0.09784390258789062	0.920572998046875	-0.03103070068359375	-0.094564697265625	0.9385399780273438	-0.04411780166625977	-0.0906781997680664	0.957531005859375	-0.05598550033569336	-0.08158670043945312	0.9919080200195313	-0.010318400382995606	-0.06475920104980469	0.9068569946289062	-0.02436800003051758	-0.065154296875	0.9266380004882813	-0.041848499298095705	-0.06421009826660157	0.9506279907226562	-0.057794898986816404	-0.06070380020141602	0.9861079711914063	-0.008697589874267579	-0.04166339874267578	0.9130549926757813	-0.022902000427246095	-0.04078960037231445	0.9315369873046875	-0.039855598449707035	-0.040464801788330076	0.9530759887695313	-0.054155101776123045	-0.041808101654052736	0.9879940185546875	-0.01082670021057129	-0.01592199993133545	0.936416015625	-0.02331719970703125	-0.01753019905090332	0.9522830200195312	-0.03408679962158203	-0.020169900894165038	0.9674459838867188	-0.044650501251220706	-0.025507400512695313	0.991281982421875	-0.05917110061645508	-0.0340885009765625	1.06002001953125
16	0.5333333333333333	-0.009140839576721191	-0.1231729965209961	0.9975599975585937	-0.018528600692749024	-0.10406600189208984	1.0123599853515626	-0.03619850158691406	-0.09486740112304687	1.03602001953125	-0.0416963996887207	-0.06368410110473632	1.046219970703125	-0.01787380027770996	-0.09769730377197265	0.9206190185546875	-0.031027000427246095	-0.09438849639892578	0.9386409912109375	-0.0440890998840332	-0.09049629974365235	0.957635986328125	-0.05588399887084961	-0.08144580078125	0.9919149780273437	-0.010326600074768067	-0.06458249664306641	0.90689501953125	-0.024381999969482423	-0.0650010986328125	0.926719970703125	-0.041839099884033205	-0.06406179809570313	0.95072998046875	-0.05782109832763672	-0.06057559967041016	0.986301025390625	-0.008728010177612305	-0.04150979995727539	0.913135986328125	-0.022923999786376954	-0.0406421012878418	0.9316179809570313	-0.03988040161132812	-0.04033599853515625	0.953135009765625	-0.05402939987182617	-0.04169020080566406	0.9881300048828126	-0.010827899932861328	-0.015762200355529787	0.9365130004882812	-0.023310699462890626	-0.017404699325561525	0.952385009765625	-0.034099998474121096	-0.020044099807739257	0.9675659790039063	-0.04458779907226563	-0.0254197998046875	0.99135302734375	-0.05910689926147461	-0.03398360061645508	1.0601800537109376
17	0.5666666666666667	-0.0090770902633667	-0.12308300018310547	0.9976820068359376	-0.018477100372314453	-0.10404000091552734	1.012489990234375	-0.036115299224853514	-0.09484159851074218	1.0360799560546874	-0.041674198150634764	-0.06361280059814453	1.046280029296875	-0.017799999237060545	-0.0975624008178711	0.9207050170898438	-0.030953100204467773	-0.09426899719238281	0.9386929931640625	-0.044054698944091794	-0.09039820098876954	0.9576610107421875	-0.05587480163574219	-0.08131539916992188	0.9920689697265626	-0.010164199829101562	-0.06451270294189453	0.907041015625	-0.024298500061035157	-0.06490460205078125	0.9268779907226562	-0.041820899963378906	-0.06396709823608399	0.9508090209960938	-0.0577504997253418	-0.0604651985168457	0.9864039916992188	-0.008586649894714355	-0.04142850112915039	0.9132529907226562	-0.022822500228881836	-0.04055559921264648	0.9317210083007812	-0.039788799285888674	-0.04025080108642578	0.9531900024414063	-0.05399209976196289	-0.041576000213623045	0.9881950073242187	-0.010746299743652344	-0.015674400329589843	0.936625	-0.023205400466918946	-0.01730459976196289	0.9524429931640624	-0.033959400177001955	-0.019950899124145507	0.9676160278320313	-0.044456501007080075	-0.025313800811767578	0.99139501953125	-0.05909360122680664	-0.03385100173950195	1.06022998046875
